PathFileType	4	(X/Y/Z)	./resultDataOpenSim/trcMotMarkerGrf/sub09/qtm-03-04.trc
DataRate	CameraRate	NumFrames	NumMarkers	Units	OrigDataRate	OrigDataStartFrame	OrigNumFrames
250.000000	250.000000	12	24	m	250.000000	294	469
Frame#	Time	L.Toe.Tip			R.Toe.Tip			L.Ankle.Lat			R.Ankle.Lat			L.Ankle.Med			R.Ankle.Med			L.Heel			R.Heel			L.Knee.Lat			R.Knee.Lat			L.Knee.Med			R.Knee.Med			L.Thigh.Upper			R.Thigh.Upper			L.ASIS			R.ASIS			V.Sacral			L.Acromium			R.Acromium			C7			L.Elbow			R.Elbow			L.Wrist.Lat			R.Wrist.Lat
		X1	Y1	Z1	X2	Y2	Z2	X3	Y3	Z3	X4	Y4	Z4	X5	Y5	Z5	X6	Y6	Z6	X7	Y7	Z7	X8	Y8	Z8	X9	Y9	Z9	X10	Y10	Z10	X11	Y11	Z11	X12	Y12	Z12	X13	Y13	Z13	X14	Y14	Z14	X15	Y15	Z15	X16	Y16	Z16	X17	Y17	Z17	X18	Y18	Z18	X19	Y19	Z19	X20	Y20	Z20	X21	Y21	Z21	X22	Y22	Z22	X23	Y23	Z23	X24	Y24	Z24

294	1.172	0.15426312	-0.0092921862	0.01883143	1.0028701	0.065934816	0.12717977	0.058860714	0.10710328	-0.041592683	0.85406573	0.054848039	0.15373546	0.089227576	0.11265045	0.051575023	0.85992769	0.096069457	0.062940937	-0.015438286	0.12039336	0.0012761302	0.79327147	0.0260309	0.10060449	0.31767994	0.44041589	-0.079784018	0.7546199	0.50141649	0.20844261	0.32341616	0.4320501	0.046009559	0.74492432	0.47999483	0.083726049	0.46790509	0.82514058	-0.10483012	0.52874973	0.83017257	0.26268247	0.58089935	0.89794985	-0.064055192	0.59705729	0.91614161	0.17957763	0.42649778	0.96238999	0.073133639	0.59395434	1.3612438	-0.080651397	0.55316781	1.3651528	0.24502399	0.50795521	1.412648	0.074720834	0.54507487	0.9865505	-0.15921009	0.3759855	1.05154	0.30422598	0.81122937	0.92266619	-0.13595196	0.44379188	0.79326829	0.35737179
295	1.176	0.15465968	-0.0091086809	0.018486457	1.004936	0.062342951	0.12782642	0.062301505	0.10973678	-0.043102621	0.85643081	0.054330155	0.15438597	0.092940144	0.114671	0.050002824	0.86231553	0.095742663	0.063579426	-0.011357287	0.12450537	-3.9401485e-05	0.79441677	0.026922483	0.10122189	0.32515256	0.44012726	-0.080339817	0.76293102	0.50345963	0.20907565	0.33038311	0.43129437	0.045845234	0.75193425	0.4815516	0.084340576	0.47538614	0.8245017	-0.10413364	0.53639844	0.831213	0.2632135	0.58836876	0.89748485	-0.063265753	0.60436475	0.91654816	0.1800626	0.43375426	0.96266464	0.072818621	0.6009713	1.3612632	-0.080213027	0.56011841	1.3648716	0.2456453	0.51494248	1.412614	0.075321476	0.5517205	0.98650784	-0.15865244	0.38344122	1.0509107	0.30456558	0.81738445	0.92127264	-0.13541035	0.45161991	0.79274883	0.35784895
296	1.18	0.15515088	-0.0088572489	0.018111166	1.0066642	0.058463501	0.12793302	0.065875384	0.11237424	-0.044594797	0.85815846	0.053875253	0.15488053	0.096929554	0.11672215	0.048406971	0.86441367	0.095505012	0.064116822	-0.0070224255	0.12868934	-0.001204785	0.79521446	0.027711184	0.10168003	0.33289091	0.43977266	-0.08092359	0.77139158	0.50555582	0.20963348	0.33806561	0.43047234	0.045433935	0.75902669	0.48334774	0.084943193	0.48290406	0.82386771	-0.10346548	0.54390484	0.83252538	0.26374134	0.59571568	0.89701099	-0.062530099	0.61165357	0.9171172	0.1805739	0.44087392	0.96302169	0.072294946	0.6080029	1.3613666	-0.07979251	0.56711122	1.3646552	0.2462414	0.52191668	1.4126333	0.075928421	0.55830569	0.98654673	-0.15805554	0.39096322	1.0503457	0.30491623	0.82343382	0.91982609	-0.13487575	0.45949511	0.79227606	0.35830624
297	1.184	0.15580884	-0.0084926093	0.017706215	1.0080859	0.054605916	0.12750591	0.069652715	0.11504879	-0.046037273	0.8593881	0.05341229	0.15519628	0.10122602	0.11881723	0.046814076	0.86614642	0.0952345	0.06450968	-0.0024271307	0.13296162	-0.0022126283	0.79579392	0.028373412	0.10207417	0.34098316	0.43932822	-0.081513591	0.77961473	0.50726057	0.20992852	0.34652518	0.42953992	0.044730796	0.76616285	0.48520804	0.085488335	0.49044123	0.82325228	-0.10283027	0.5512776	0.83401666	0.26429615	0.60293313	0.8965299	-0.061857712	0.61894567	0.91782481	0.18110901	0.4477465	0.96335549	0.071928973	0.61504522	1.3615493	-0.079375354	0.57413902	1.3645164	0.24681954	0.5288715	1.4126986	0.076528357	0.56479415	0.98668131	-0.15741768	0.39854702	1.0498436	0.30526731	0.8293821	0.91834693	-0.13435046	0.46741458	0.79185543	0.35873548
298	1.188	0.15666776	-0.0079763953	0.017281826	1.0093245	0.051180128	0.12669305	0.07367825	0.11782125	-0.047392346	0.86039281	0.052943071	0.15531701	0.10582975	0.12098625	0.045260174	0.86755319	0.094888568	0.064708683	0.0024334326	0.13735796	-0.0030875031	0.79630162	0.028923941	0.10244343	0.34950662	0.43880928	-0.082149793	0.78739395	0.50841228	0.20995235	0.35567535	0.42844777	0.043781808	0.77328985	0.4870084	0.085973433	0.49798816	0.82266665	-0.10223247	0.5585438	0.83559946	0.2648956	0.61004475	0.89607098	-0.061233811	0.62624575	0.91864045	0.18166862	0.45433141	0.96358993	0.071894553	0.62209177	1.3618054	-0.078947874	0.58118678	1.3644669	0.24738675	0.53579447	1.4127947	0.077096856	0.57113854	0.98691882	-0.15671365	0.4061901	1.0493983	0.30560711	0.83523003	0.91685791	-0.13383313	0.47539597	0.79149595	0.35913949
299	1.192	0.15772422	-0.0072908308	0.016849331	1.0105102	0.048490301	0.12569676	0.07796626	0.12074487	-0.048633015	0.86140979	0.05253062	0.1552328	0.1107103	0.12325837	0.043784193	0.86875685	0.09448771	0.064671009	0.0075673217	0.14190417	-0.003865734	0.79683599	0.02939598	0.10273764	0.35840802	0.43823678	-0.082842467	0.79474771	0.50907817	0.20985761	0.36525527	0.42719028	0.042717799	0.78036014	0.48866484	0.086421471	0.50553643	0.82210854	-0.10167398	0.56573214	0.83719575	0.26553664	0.6171012	0.89567299	-0.060619401	0.63353358	0.91953137	0.18224896	0.46082737	0.96373687	0.072142467	0.62913994	1.3621229	-0.078499754	0.58823784	1.3645052	0.24794028	0.54268409	1.4128971	0.077617355	0.57731574	0.98725805	-0.15592798	0.41389315	1.0490049	0.30592804	0.84096411	0.91536168	-0.13331632	0.48347537	0.79120663	0.35953166
300	1.196	0.15895512	-0.0064410196	0.01640567	1.0116638	0.046598133	0.12470264	0.082515477	0.12384696	-0.049760993	0.86250834	0.05224741	0.15497859	0.11582135	0.12565627	0.042421454	0.86984845	0.094074249	0.064410705	0.012988841	0.14660408	-0.0045713869	0.79741471	0.029807356	0.10289558	0.36752681	0.43761353	-0.083572227	0.80176483	0.50936982	0.2097756	0.37482085	0.42581015	0.041727967	0.78734626	0.49012905	0.086847336	0.51307233	0.82156965	-0.10116134	0.57285442	0.83873828	0.26620702	0.62417471	0.89537836	-0.059946635	0.64077429	0.92047435	0.18283827	0.46756271	0.96386742	0.072542695	0.63618915	1.3624875	-0.078025417	0.59527454	1.3646197	0.24846941	0.54954676	1.4129942	0.07809304	0.58337018	0.98769871	-0.15510549	0.42165431	1.0486641	0.30622845	0.84656484	0.9138355	-0.13278757	0.49166447	0.79098772	0.35991517
301	1.2	0.16033378	-0.0054404371	0.015927963	1.0126886	0.045330304	0.12384121	0.087325521	0.12713554	-0.050792427	0.86359667	0.052131251	0.15464705	0.12111644	0.12819931	0.041195645	0.87082744	0.093690102	0.064024452	0.018719892	0.15144607	-0.005221222	0.79798259	0.030154506	0.1029405	0.37678617	0.43694236	-0.084360524	0.80858237	0.5093929	0.20982974	0.38406838	0.42433878	0.040932827	0.7942435	0.49138776	0.087237047	0.5205798	0.82104843	-0.1006871	0.57990771	0.84018031	0.26690398	0.6313324	0.89523025	-0.059139308	0.64793222	0.92146422	0.183425	0.47468334	0.96407898	0.072906084	0.6432305	1.3628942	-0.077526846	0.60228013	1.3648088	0.24896756	0.55637101	1.4131237	0.078549067	0.58938952	0.98824671	-0.15433088	0.42946603	1.0483833	0.30652062	0.85202683	0.91225649	-0.13223943	0.49992755	0.79083172	0.36027177
302	1.204	0.16184191	-0.0042927043	0.015391922	1.0134945	0.044421399	0.12316211	0.092406994	0.13060653	-0.051723704	0.8645319	0.052164398	0.15433881	0.12655682	0.1308987	0.040112524	0.87164431	0.093367005	0.063636901	0.024789532	0.15641519	-0.005849609	0.79846028	0.030429881	0.10296729	0.38625686	0.43624061	-0.085246326	0.81536158	0.50927645	0.2101605	0.39334869	0.42279276	0.040180213	0.80106449	0.49245299	0.087558282	0.5280482	0.82055756	-0.10019522	0.58688636	0.84150172	0.26763708	0.63857764	0.89524768	-0.0581718	0.65498253	0.92250526	0.1840142	0.48207299	0.96444578	0.073063685	0.65024266	1.3633518	-0.077013771	0.60924697	1.3650859	0.24943859	0.56311657	1.4133589	0.079015243	0.59543207	0.98890817	-0.1536543	0.43732306	1.0481674	0.30684638	0.85735843	0.91062512	-0.13167447	0.508224	0.79073685	0.36058283
303	1.208	0.16348197	-0.0029900804	0.014798819	1.0141009	0.043682771	0.12263183	0.09777711	0.13423973	-0.052531791	0.86523066	0.052279615	0.15410057	0.13212861	0.13375051	0.039169317	0.87227557	0.093117004	0.063319307	0.031223676	0.16150771	-0.0065088779	0.79880773	0.030637483	0.10304338	0.39597108	0.43550788	-0.08618013	0.82210673	0.50914831	0.21075281	0.4033656	0.42123032	0.039175532	0.80782473	0.49334453	0.087787754	0.53547392	0.82011902	-0.099611438	0.59378635	0.84269916	0.26840984	0.64581001	0.89539627	-0.057115851	0.66192267	0.92358917	0.18463151	0.48950036	0.96495177	0.073064542	0.6572022	1.3638718	-0.076497605	0.61618095	1.3654607	0.24989252	0.56975244	1.4137408	0.079495946	0.60151191	0.9896835	-0.1530799	0.4452224	1.0480056	0.30727214	0.86256784	0.9089594	-0.13110078	0.51655867	0.79071254	0.36085309
304	1.212	0.16528446	-0.0015209198	0.014182763	1.0145964	0.043052315	0.12218854	0.10345248	0.1380013	-0.05320011	0.86571437	0.052396622	0.15391113	0.13786506	0.13673946	0.038374231	0.87275656	0.0929338	0.063068153	0.038022712	0.16673147	-0.0072205011	0.79904969	0.030792802	0.1031486	0.40585047	0.43472151	-0.087053484	0.82864472	0.50907007	0.21141517	0.41421915	0.41970162	0.037907023	0.81452154	0.49407671	0.087922403	0.54285873	0.81975125	-0.098917021	0.60060741	0.84377226	0.26920777	0.65289495	0.89561272	-0.056086698	0.66877116	0.92468338	0.18530536	0.49674476	0.96550455	0.073202298	0.66409511	1.364452	-0.075985014	0.62309453	1.3659281	0.25033719	0.57630471	1.4142369	0.079963062	0.60761563	0.99056214	-0.15258898	0.45315204	1.0478747	0.30783886	0.86765863	0.9072757	-0.13052759	0.52496734	0.79076531	0.36110126
305	1.216	0.16729751	0.00012464352	0.013588787	1.015046	0.042528174	0.1218056	0.10944209	0.14185515	-0.053726263	0.86608431	0.052465399	0.15371933	0.14383016	0.13984797	0.037746437	0.8731689	0.092805879	0.062843352	0.045151863	0.17208522	-0.0079256273	0.79924387	0.030913956	0.10321146	0.41587881	0.4338776	-0.087832547	0.83482673	0.50901131	0.21196907	0.42532894	0.4181819	0.036679409	0.82111855	0.49465417	0.087972464	0.55020562	0.81946739	-0.098153891	0.60735695	0.84472582	0.27001197	0.6597784	0.89586401	-0.055142277	0.67554921	0.92574606	0.18604749	0.50366968	0.96603383	0.073766297	0.67091495	1.3650752	-0.075478956	0.62999348	1.3664757	0.25077219	0.58282892	1.4147856	0.080389673	0.61368835	0.99151887	-0.15213046	0.46109673	1.0477706	0.30850617	0.87263276	0.90557859	-0.1299634	0.53347007	0.79088972	0.36133509
